# xmcd
#
# Track frame offsets:
# 150
# 2640
# 3910
# 16520
# 33220
# 34865
# 49925
# 62230
# 64090
# 77635
# 88615
# 90005
# 103635
# 117380
# 119475
# 133590
# 148080
# 150355
# 160805
# 177880
# 180095
# 191725
# 207465
#
# Disc length: 2839 seconds
#
#
# Revision: 0
# Processed by: cddbd v1.5.1PL2 Copyright (c) Steve Scherf et al.
# Submitted via: FreeRIP 2.943 
#
DISCID=1c0b1517
DTITLE=Clube da Viola - Volume 01
DYEAR=1995
DGENRE=Sertanejo
TTITLE0=Toque do berrante - locução Cigano
TTITLE1=Locução Cigano
TTITLE2=Recortado Paulista - Fred e Pedrito
TTITLE3=Cowboy de coração - Juliano Cesar
TTITLE4=Locução Bala de prata
TTITLE5=Quem tem saudade - João Pedro e Cristiano
TTITLE6=Apaixonado - Luan e Leomar
TTITLE7=Locução - Alex Pasquini
TTITLE8=Sentimento safenado - Mauricio e Marcelo
TTITLE9=Coisa boa é mulher - Emílio e Eduardo
TTITLE10=Locução - Alex Pasquini
TTITLE11=KM 45 - Fred e Pedrito
TTITLE12=Cowboy radical - Jayne
TTITLE13=Locução - Cigano
TTITLE14=Festa de peão - João Pedro e Cristiano
TTITLE15=Saudade de Tião Carreiro - Dombhar e Delley
TTITLE16=Locução - Bala de prata
TTITLE17=Peão apaixonado - Juliano Cesar
TTITLE18=Herança naiva - Luan e Leomar
TTITLE19=Locução - Cigano
TTITLE20=Festa de Barretos - Jayne
TTITLE21=Estradas do interior - Fred e Pedrito
TTITLE22=Oração à Nossa Senhora - Cigano
EXTD=
EXTT0=
EXTT1=
EXTT2=
EXTT3=
EXTT4=
EXTT5=
EXTT6=
EXTT7=
EXTT8=
EXTT9=
EXTT10=
EXTT11=
EXTT12=
EXTT13=
EXTT14=
EXTT15=
EXTT16=
EXTT17=
EXTT18=
EXTT19=
EXTT20=
EXTT21=
EXTT22=
PLAYORDER=
